<?xml version="1.0" encoding="utf-8"?>
<svg version="1.1" xmlns:xlink="http://www.w3.org/1999/xlink" width="80px" height="30px" xmlns="http://www.w3.org/2000/svg">
  <g transform="matrix(1 0 0 1 -2272 -3976 )">
    <path d="M 2272.5 3979  A 2.5 2.5 0 0 1 2275 3976.5 L 2349 3976.5  A 2.5 2.5 0 0 1 2351.5 3979 L 2351.5 4003  A 2.5 2.5 0 0 1 2349 4005.5 L 2275 4005.5  A 2.5 2.5 0 0 1 2272.5 4003 L 2272.5 3979  Z " fill-rule="nonzero" fill="#f0f7ff" stroke="none" />
    <path d="M 2272.5 3979  A 2.5 2.5 0 0 1 2275 3976.5 L 2349 3976.5  A 2.5 2.5 0 0 1 2351.5 3979 L 2351.5 4003  A 2.5 2.5 0 0 1 2349 4005.5 L 2275 4005.5  A 2.5 2.5 0 0 1 2272.5 4003 L 2272.5 3979  Z " stroke-width="1" stroke="#409eff" fill="none" />
  </g>
</svg>