<?xml version="1.0" encoding="utf-8"?>
<svg version="1.1" xmlns:xlink="http://www.w3.org/1999/xlink" width="229px" height="42px" xmlns="http://www.w3.org/2000/svg">
  <g transform="matrix(1 0 0 1 -233 -633 )">
    <path d="M 234 660.9  C 234 660.9  234 638  234 638  C 234 635.790861000677  235.790861000677 634  238 634  C 238 634  457 634  457 634  C 459.209138999323 634  461 635.790861000677  461 638  C 461 638  461 660.9  461 660.9  C 461 663.109138999323  459.209138999323 664.9  457 664.9  C 457 664.9  361.065324242243 664.9  361.065324242243 664.9  C 361.065324242243 664.9  351.137825181529 673.647748067841  351.137825181529 673.647748067841  C 351.137825181529 673.647748067841  341.839504312923 664.9  341.839504312923 664.9  C 341.839504312923 664.9  238 664.9  238 664.9  C 235.790861000677 664.9  234 663.109138999323  234 660.9  Z " fill-rule="nonzero" fill="#333333" stroke="none" fill-opacity="0.8" />
  </g>
</svg>