<?xml version="1.0" encoding="utf-8"?>
<svg version="1.1" xmlns:xlink="http://www.w3.org/1999/xlink" width="229px" height="42px" xmlns="http://www.w3.org/2000/svg">
  <g transform="matrix(1 0 0 1 -233 -677 )">
    <path d="M 234 704.9  C 234 704.9  234 682  234 682  C 234 679.790861000677  235.790861000677 678  238 678  C 238 678  457 678  457 678  C 459.209138999323 678  461 679.790861000677  461 682  C 461 682  461 704.9  461 704.9  C 461 707.109138999323  459.209138999323 708.9  457 708.9  C 457 708.9  361.065324242243 708.9  361.065324242243 708.9  C 361.065324242243 708.9  351.137825181529 717.647748067841  351.137825181529 717.647748067841  C 351.137825181529 717.647748067841  341.839504312923 708.9  341.839504312923 708.9  C 341.839504312923 708.9  238 708.9  238 708.9  C 235.790861000677 708.9  234 707.109138999323  234 704.9  Z " fill-rule="nonzero" fill="#333333" stroke="none" fill-opacity="0.8" />
  </g>
</svg>