<?xml version="1.0" encoding="utf-8"?>
<svg version="1.1" xmlns:xlink="http://www.w3.org/1999/xlink" width="80px" height="35px" xmlns="http://www.w3.org/2000/svg">
  <g transform="matrix(1 0 0 1 -1479 -158 )">
    <path d="M 1479.5 163  A 4.5 4.5 0 0 1 1484 158.5 L 1554 158.5  A 4.5 4.5 0 0 1 1558.5 163 L 1558.5 188  A 4.5 4.5 0 0 1 1554 192.5 L 1484 192.5  A 4.5 4.5 0 0 1 1479.5 188 L 1479.5 163  Z " fill-rule="nonzero" fill="#f9f9f9" stroke="none" fill-opacity="0" />
    <path d="M 1479.5 163  A 4.5 4.5 0 0 1 1484 158.5 L 1554 158.5  A 4.5 4.5 0 0 1 1558.5 163 L 1558.5 188  A 4.5 4.5 0 0 1 1554 192.5 L 1484 192.5  A 4.5 4.5 0 0 1 1479.5 188 L 1479.5 163  Z " stroke-width="1" stroke="#e4e4e4" fill="none" />
  </g>
</svg>