<?xml version="1.0" encoding="utf-8"?>
<svg version="1.1" xmlns:xlink="http://www.w3.org/1999/xlink" width="60px" height="25px" xmlns="http://www.w3.org/2000/svg">
  <g transform="matrix(1 0 0 1 -15 -15 )">
    <path d="M 15.5 17  A 1.5 1.5 0 0 1 17 15.5 L 73 15.5  A 1.5 1.5 0 0 1 74.5 17 L 74.5 38  A 1.5 1.5 0 0 1 73 39.5 L 17 39.5  A 1.5 1.5 0 0 1 15.5 38 L 15.5 17  Z " fill-rule="nonzero" fill="#19be6b" stroke="none" />
    <path d="M 15.5 17  A 1.5 1.5 0 0 1 17 15.5 L 73 15.5  A 1.5 1.5 0 0 1 74.5 17 L 74.5 38  A 1.5 1.5 0 0 1 73 39.5 L 17 39.5  A 1.5 1.5 0 0 1 15.5 38 L 15.5 17  Z " stroke-width="1" stroke="#19be6b" fill="none" />
  </g>
</svg>