<?xml version="1.0" encoding="utf-8"?>
<svg version="1.1" xmlns:xlink="http://www.w3.org/1999/xlink" width="69px" height="25px" xmlns="http://www.w3.org/2000/svg">
  <g transform="matrix(1 0 0 1 -81 -15 )">
    <path d="M 81.5 17  A 1.5 1.5 0 0 1 83 15.5 L 148 15.5  A 1.5 1.5 0 0 1 149.5 17 L 149.5 38  A 1.5 1.5 0 0 1 148 39.5 L 83 39.5  A 1.5 1.5 0 0 1 81.5 38 L 81.5 17  Z " fill-rule="nonzero" fill="#f56c6c" stroke="none" />
    <path d="M 81.5 17  A 1.5 1.5 0 0 1 83 15.5 L 148 15.5  A 1.5 1.5 0 0 1 149.5 17 L 149.5 38  A 1.5 1.5 0 0 1 148 39.5 L 83 39.5  A 1.5 1.5 0 0 1 81.5 38 L 81.5 17  Z " stroke-width="1" stroke="#f56c6c" fill="none" />
  </g>
</svg>