<?xml version="1.0" encoding="utf-8"?>
<svg version="1.1" xmlns:xlink="http://www.w3.org/1999/xlink" width="80px" height="35px" xmlns="http://www.w3.org/2000/svg">
  <g transform="matrix(1 0 0 1 -1479 -158 )">
    <path d="M 1480 163  A 4 4 0 0 1 1484 159 L 1554 159  A 4 4 0 0 1 1558 163 L 1558 188  A 4 4 0 0 1 1554 192 L 1484 192  A 4 4 0 0 1 1480 188 L 1480 163  Z " fill-rule="nonzero" fill="#f0f7ff" stroke="none" />
    <path d="M 1479.5 163  A 4.5 4.5 0 0 1 1484 158.5 L 1554 158.5  A 4.5 4.5 0 0 1 1558.5 163 L 1558.5 188  A 4.5 4.5 0 0 1 1554 192.5 L 1484 192.5  A 4.5 4.5 0 0 1 1479.5 188 L 1479.5 163  Z " stroke-width="1" stroke="#7abbff" fill="none" stroke-opacity="0.996078431372549" />
  </g>
</svg>