<?xml version="1.0" encoding="utf-8"?>
<svg version="1.1" xmlns:xlink="http://www.w3.org/1999/xlink" width="130px" height="45px" xmlns="http://www.w3.org/2000/svg">
  <defs>
    <mask fill="white" id="clip39">
      <path d="M 0 33  L 0 2  C 0 0.88  0.88 0  2 0  L 118 0  C 119.12 0  120 0.88  120 2  L 120 33  C 120 34.12  119.12 35  118 35  L 41.75 35  L 2 35  C 0.88 35  0 34.12  0 33  Z " fill-rule="evenodd" />
    </mask>
    <filter x="-5px" y="-5px" width="130px" height="45px" filterUnits="userSpaceOnUse" id="filter40">
      <feOffset dx="0" dy="0" in="SourceAlpha" result="shadowOffsetInner" />
      <feGaussianBlur stdDeviation="2.5" in="shadowOffsetInner" result="shadowGaussian" />
      <feComposite in2="shadowGaussian" operator="atop" in="SourceAlpha" result="shadowComposite" />
      <feColorMatrix type="matrix" values="0 0 0 0 0.250980392156863  0 0 0 0 0.619607843137255  0 0 0 0 1  0 0 0 0.247058823529412 0  " in="shadowComposite" />
    </filter>
    <g id="widget41">
      <path d="M 0 33  L 0 2  C 0 0.88  0.88 0  2 0  L 118 0  C 119.12 0  120 0.88  120 2  L 120 33  C 120 34.12  119.12 35  118 35  L 41.75 35  L 2 35  C 0.88 35  0 34.12  0 33  Z " fill-rule="nonzero" fill="#ffffff" stroke="none" />
      <path d="M 0 33  L 0 2  C 0 0.88  0.88 0  2 0  L 118 0  C 119.12 0  120 0.88  120 2  L 120 33  C 120 34.12  119.12 35  118 35  L 41.75 35  L 2 35  C 0.88 35  0 34.12  0 33  Z " stroke-width="2" stroke="#409eff" fill="none" mask="url(#clip39)" />
    </g>
  </defs>
  <g transform="matrix(1 0 0 1 5 5 )">
    <use xlink:href="#widget41" filter="url(#filter40)" />
    <use xlink:href="#widget41" />
  </g>
</svg>