<?xml version="1.0" encoding="utf-8"?>
<svg version="1.1" xmlns:xlink="http://www.w3.org/1999/xlink" width="120px" height="35px" xmlns="http://www.w3.org/2000/svg">
  <defs>
    <mask fill="white" id="clip154">
      <path d="M 0 33  L 0 2  C 0 0.88  0.88 0  2 0  L 118 0  C 119.12 0  120 0.88  120 2  L 120 33  C 120 34.12  119.12 35  118 35  L 41.75 35  L 2 35  C 0.88 35  0 34.12  0 33  Z " fill-rule="evenodd" />
    </mask>
  </defs>
  <g>
    <path d="M 0 33  L 0 2  C 0 0.88  0.88 0  2 0  L 118 0  C 119.12 0  120 0.88  120 2  L 120 33  C 120 34.12  119.12 35  118 35  L 41.75 35  L 2 35  C 0.88 35  0 34.12  0 33  Z " fill-rule="nonzero" fill="#f2f2f2" stroke="none" />
    <path d="M 0 33  L 0 2  C 0 0.88  0.88 0  2 0  L 118 0  C 119.12 0  120 0.88  120 2  L 120 33  C 120 34.12  119.12 35  118 35  L 41.75 35  L 2 35  C 0.88 35  0 34.12  0 33  Z " stroke-width="2" stroke="#e4e4e4" fill="none" mask="url(#clip154)" />
  </g>
</svg>