<?xml version="1.0" encoding="utf-8"?>
<svg version="1.1" xmlns:xlink="http://www.w3.org/1999/xlink" width="130px" height="40px" xmlns="http://www.w3.org/2000/svg">
  <g transform="matrix(1 0 0 1 -68 -442 )">
    <path d="M 69 444  A 1 1 0 0 1 70 443 L 196 443  A 1 1 0 0 1 197 444 L 197 480  A 1 1 0 0 1 196 481 L 70 481  A 1 1 0 0 1 69 480 L 69 444  Z " fill-rule="nonzero" fill="#f0f7ff" stroke="none" />
    <path d="M 68.5 444  A 1.5 1.5 0 0 1 70 442.5 L 196 442.5  A 1.5 1.5 0 0 1 197.5 444 L 197.5 480  A 1.5 1.5 0 0 1 196 481.5 L 70 481.5  A 1.5 1.5 0 0 1 68.5 480 L 68.5 444  Z " stroke-width="1" stroke="#7abbff" fill="none" stroke-opacity="0.996078431372549" />
  </g>
</svg>