<?xml version="1.0" encoding="utf-8"?>
<svg version="1.1" xmlns:xlink="http://www.w3.org/1999/xlink" width="30px" height="30px" xmlns="http://www.w3.org/2000/svg">
  <g transform="matrix(1 0 0 1 -46 -16 )">
    <path d="M 61 17  C 68.84 17  75 23.16  75 31  C 75 38.84  68.84 45  61 45  C 53.16 45  47 38.84  47 31  C 47 23.16  53.16 17  61 17  Z " fill-rule="nonzero" fill="#409eff" stroke="none" />
    <path d="M 61 17  C 68.84 17  75 23.16  75 31  C 75 38.84  68.84 45  61 45  C 53.16 45  47 38.84  47 31  C 47 23.16  53.16 17  61 17  Z " stroke-width="2" stroke="#409eff" fill="none" />
  </g>
</svg>