<?xml version="1.0" encoding="utf-8"?>
<svg version="1.1" xmlns:xlink="http://www.w3.org/1999/xlink" width="30px" height="30px" xmlns="http://www.w3.org/2000/svg">
  <g transform="matrix(1 0 0 1 -327 -16 )">
    <path d="M 342 17  C 349.84 17  356 23.16  356 31  C 356 38.84  349.84 45  342 45  C 334.16 45  328 38.84  328 31  C 328 23.16  334.16 17  342 17  Z " fill-rule="nonzero" fill="#ffffff" stroke="none" />
    <path d="M 342 17  C 349.84 17  356 23.16  356 31  C 356 38.84  349.84 45  342 45  C 334.16 45  328 38.84  328 31  C 328 23.16  334.16 17  342 17  Z " stroke-width="2" stroke="#e4e4e4" fill="none" />
  </g>
</svg>